<svg xmlns="http://www.w3.org/2000/svg" viewBox="0 0 1280 800" width="1280" height="800" role="img" aria-label="3D Geo-Explorer — placeholder">
  <defs>
    <linearGradient id="bg-g3" x1="0" y1="0" x2="1" y2="1">
      <stop offset="0" stop-color="#080d16"/><stop offset="1" stop-color="#050810"/>
    </linearGradient>
    <pattern id="grid-g3" width="40" height="40" patternUnits="userSpaceOnUse">
      <path d="M40 0H0V40" fill="none" stroke="#4CC9F0" stroke-opacity=".10" stroke-width="1"/>
    </pattern>
  </defs>
  <rect width="1280" height="800" fill="url(#bg-g3)"/>
  <rect width="1280" height="800" fill="url(#grid-g3)"/>
  
  <g stroke="#4CC9F0" fill="none">
    <path d="M60 300 L60 287.8 L100 281.1 L140 276.4 L180 274.2 L220 274.6 L260 277.7 L300 283.2 L340 290.4 L380 298.6 L420 307.0 L460 314.6 L500 320.7 L540 324.6 L580 326.0 L620 324.6 L660 320.7 L700 314.6 L740 307.0 L780 298.6 L820 290.4 L860 283.2 L900 277.7 L940 274.6 L980 274.2 L1020 276.4 L1060 281.1 L1100 287.8 L1140 295.8 L1180 304.2 L1220 312.2" stroke-width="1.6" stroke-opacity="0.340"/>
    <path d="M60 342 L60 315.3 L100 311.7 L140 311.2 L180 314.0 L220 319.7 L260 327.7 L300 337.2 L340 347.3 L380 356.7 L420 364.7 L460 370.2 L500 372.8 L540 372.2 L580 368.4 L620 361.9 L660 353.2 L700 343.4 L740 333.5 L780 324.4 L820 317.2 L860 312.5 L900 311.0 L940 312.7 L980 317.5 L1020 324.8 L1060 334.0 L1100 343.9 L1140 353.7 L1180 362.3 L1220 368.7" stroke-width="1.6" stroke-opacity="0.318"/>
    <path d="M60 384 L60 348.0 L100 350.1 L140 355.7 L180 364.3 L220 374.9 L260 386.5 L300 397.9 L340 407.8 L380 415.2 L420 419.3 L460 419.7 L500 416.4 L540 409.7 L580 400.3 L620 389.2 L660 377.6 L700 366.6 L740 357.5 L780 351.1 L820 348.2 L860 349.0 L900 353.5 L940 361.2 L980 371.2 L1020 382.7 L1060 394.2 L1100 404.7 L1140 413.0 L1180 418.3 L1220 420.0" stroke-width="1.6" stroke-opacity="0.296"/>
    <path d="M60 426 L60 391.4 L100 400.2 L140 411.8 L180 424.8 L220 438.0 L260 449.9 L300 459.3 L340 465.2 L380 467.0 L420 464.5 L460 458.0 L500 448.2 L540 436.0 L580 422.8 L620 409.9 L660 398.7 L700 390.4 L740 385.8 L780 385.4 L820 389.2 L860 396.9 L900 407.7 L940 420.4 L980 433.6 L1020 446.1 L1060 456.5 L1100 463.6 L1140 466.9 L1180 465.8 L1220 460.6" stroke-width="1.6" stroke-opacity="0.274"/>
    <path d="M60 468 L60 447.8 L100 462.1 L140 477.0 L180 490.9 L220 502.4 L260 510.4 L300 513.9 L340 512.6 L380 506.6 L420 496.6 L460 483.6 L500 469.0 L540 454.2 L580 440.9 L620 430.5 L660 423.9 L700 422.0 L740 424.9 L780 432.3 L820 443.5 L860 457.2 L900 472.0 L940 486.4 L980 498.9 L1020 508.2 L1060 513.2 L1100 513.5 L1140 509.1 L1180 500.3 L1220 488.2" stroke-width="1.6" stroke-opacity="0.252"/>
    <path d="M60 510 L60 514.9 L100 530.8 L140 544.6 L180 554.8 L220 560.2 L260 560.4 L300 555.4 L340 545.5 L380 532.0 L420 516.1 L460 499.7 L500 484.3 L540 471.5 L580 462.9 L620 459.1 L660 460.7 L700 467.4 L740 478.6 L780 493.1 L820 509.4 L860 525.7 L900 540.4 L940 551.9 L980 559.0 L1020 561.0 L1060 557.6 L1100 549.3 L1140 536.8 L1180 521.6 L1220 505.1" stroke-width="1.6" stroke-opacity="0.230"/>
    <path d="M60 552 L60 585.7 L100 598.2 L140 605.9 L180 607.9 L220 604.1 L260 594.8 L300 581.1 L340 564.3 L380 546.2 L420 528.7 L460 513.7 L500 502.6 L540 496.8 L580 496.7 L620 502.4 L660 513.3 L700 528.3 L740 545.7 L780 563.8 L820 580.7 L860 594.5 L900 603.9 L940 607.9 L980 606.0 L1020 598.5 L1060 586.1 L1100 570.1 L1140 552.2 L1180 534.3 L1220 518.3" stroke-width="1.6" stroke-opacity="0.208"/>
    <path d="M60 594 L60 650.8 L100 654.9 L140 652.7 L180 644.3 L220 630.7 L260 613.2 L300 593.7 L340 574.3 L380 556.9 L420 543.4 L460 535.2 L500 533.1 L540 537.4 L580 547.7 L620 562.8 L660 581.1 L700 600.9 L740 619.8 L780 636.1 L820 648.0 L860 654.2 L900 654.2 L940 647.8 L980 635.8 L1020 619.4 L1060 600.3 L1100 580.6 L1140 562.3 L1180 547.3 L1220 537.2" stroke-width="1.6" stroke-opacity="0.186"/>
    <path d="M60 636 L60 701.0 L100 693.9 L140 680.8 L180 663.0 L220 642.3 L260 621.0 L300 601.3 L340 585.2 L380 574.4 L420 570.1 L460 572.6 L500 581.8 L540 596.7 L580 615.7 L620 636.8 L660 657.9 L700 676.6 L740 691.1 L780 699.8 L820 701.9 L860 697.0 L900 685.8 L940 669.3 L980 649.4 L1020 628.0 L1060 607.5 L1100 590.0 L1140 577.3 L1180 570.7 L1220 571.0" stroke-width="1.6" stroke-opacity="0.164"/>
    <path d="M60 678 L60 731.1 L100 713.3 L140 691.8 L180 668.8 L220 646.8 L260 628.1 L300 614.6 L340 607.7 L380 608.2 L420 616.0 L460 630.3 L500 649.5 L540 671.8 L580 694.7 L620 715.9 L660 733.1 L700 744.5 L740 749.0 L780 746.0 L820 735.9 L860 719.8 L900 699.3 L940 676.5 L980 653.9 L1020 633.9 L1060 618.4 L1100 609.2 L1140 607.2 L1180 612.6 L1220 624.9" stroke-width="1.6" stroke-opacity="0.142"/>
    <path d="M60 720 L60 742.1 L100 717.8 L140 693.6 L180 672.3 L220 655.9 L260 646.2 L300 644.3 L340 650.3 L380 663.5 L420 682.7 L460 705.8 L500 730.4 L540 753.9 L580 773.9 L620 788.2 L660 795.3 L700 794.6 L740 786.1 L780 770.6 L820 749.9 L860 726.0 L900 701.5 L940 678.9 L980 660.7 L1020 648.6 L1060 644.0 L1100 647.4 L1140 658.4 L1180 675.8 L1220 697.9" stroke-width="1.6" stroke-opacity="0.120"/>
  </g>
  <g stroke="#4CC9F0" stroke-opacity=".16" stroke-width="1">
    <path d="M60 300 L640 190 L1220 300" fill="none"/>
  </g>
  <g font-family="ui-monospace,Menlo,monospace" font-size="17" fill="#4CC9F0" fill-opacity=".85">
    <text x="44" y="60" letter-spacing="3">3D GEO-EXPLORER</text>
  </g>
  <g font-family="ui-monospace,Menlo,monospace" font-size="13" fill="#8A94A6">
    <text x="44" y="760" letter-spacing="2">PLACEHOLDER — REPLACE WITH REAL CAPTURE</text>
  </g>
  <rect x="10" y="10" width="1260" height="780" fill="none"
        stroke="#4CC9F0" stroke-opacity=".35" stroke-width="2" stroke-dasharray="14 10" rx="6"/>
</svg>